<?xml version="1.0" encoding="UTF-8" standalone="no"?><svg xmlns="http://www.w3.org/2000/svg" xmlns:xlink="http://www.w3.org/1999/xlink" contentScriptType="application/ecmascript" contentStyleType="text/css" height="508px" preserveAspectRatio="none" style="width:473px;height:508px;" version="1.1" viewBox="0 0 473 508" width="473px" zoomAndPan="magnify"><defs/><g><!--entity _app_module--><rect fill="#F8F8F8" height="34.4844" rx="3" ry="3" style="stroke: #000000; stroke-width: 0.5;" width="87" x="190.5" y="8"/><text fill="#000000" font-family="Tahoma, sans-serif" font-size="12" lengthAdjust="spacingAndGlyphs" textLength="67" x="200.5" y="30.0059">app.module</text><!--entity _base_entity--><rect fill="#F8F8F8" height="34.4844" rx="3" ry="3" style="stroke: #000000; stroke-width: 0.5;" width="82" x="180" y="463"/><text fill="#000000" font-family="Tahoma, sans-serif" font-size="12" lengthAdjust="spacingAndGlyphs" textLength="62" x="190" y="485.0059">base.entity</text><!--entity _book_controller--><rect fill="#F8F8F8" height="34.4844" rx="3" ry="3" style="stroke: #000000; stroke-width: 0.5;" width="107" x="243.5" y="186"/><text fill="#000000" font-family="Tahoma, sans-serif" font-size="12" lengthAdjust="spacingAndGlyphs" textLength="87" x="253.5" y="208.0059">book.controller</text><!--entity _book_entity--><rect fill="#F8F8F8" height="34.4844" rx="3" ry="3" style="stroke: #000000; stroke-width: 0.5;" width="83" x="273.5" y="401"/><text fill="#000000" font-family="Tahoma, sans-serif" font-size="12" lengthAdjust="spacingAndGlyphs" textLength="63" x="283.5" y="423.0059">book.entity</text><!--entity _book_module--><rect fill="#F8F8F8" height="34.4844" rx="3" ry="3" style="stroke: #000000; stroke-width: 0.5;" width="95" x="252.5" y="70"/><text fill="#000000" font-family="Tahoma, sans-serif" font-size="12" lengthAdjust="spacingAndGlyphs" textLength="75" x="262.5" y="92.0059">book.module</text><!--entity _book_repository--><rect fill="#F8F8F8" height="34.4844" rx="3" ry="3" style="stroke: #000000; stroke-width: 0.5;" width="110" x="352" y="339"/><text fill="#000000" font-family="Tahoma, sans-serif" font-size="12" lengthAdjust="spacingAndGlyphs" textLength="90" x="362" y="361.0059">book.repository</text><!--entity _book_service--><rect fill="#F8F8F8" height="34.4844" rx="3" ry="3" style="stroke: #000000; stroke-width: 0.5;" width="93" x="322.5" y="277"/><text fill="#000000" font-family="Tahoma, sans-serif" font-size="12" lengthAdjust="spacingAndGlyphs" textLength="73" x="332.5" y="299.0059">book.service</text><!--entity _config--><rect fill="#F8F8F8" height="34.4844" rx="3" ry="3" style="stroke: #000000; stroke-width: 0.5;" width="56" x="6" y="339"/><text fill="#000000" font-family="Tahoma, sans-serif" font-size="12" lengthAdjust="spacingAndGlyphs" textLength="36" x="16" y="361.0059">config</text><!--entity _header_util--><rect fill="#F8F8F8" height="34.4844" rx="3" ry="3" style="stroke: #000000; stroke-width: 0.5;" width="81" x="106.5" y="277"/><text fill="#000000" font-family="Tahoma, sans-serif" font-size="12" lengthAdjust="spacingAndGlyphs" textLength="61" x="116.5" y="299.0059">header-util</text><!--entity _logging_interceptor--><rect fill="#F8F8F8" height="34.4844" rx="3" ry="3" style="stroke: #000000; stroke-width: 0.5;" width="127" x="150.5" y="339"/><text fill="#000000" font-family="Tahoma, sans-serif" font-size="12" lengthAdjust="spacingAndGlyphs" textLength="107" x="160.5" y="361.0059">logging.interceptor</text><ellipse cx="75.1274" cy="25.242" fill="#F8F8F8" rx="25.6274" ry="13.242" style="stroke: #383838; stroke-width: 0.5;"/><text fill="#000000" font-family="Tahoma, sans-serif" font-size="12" font-weight="bold" lengthAdjust="spacingAndGlyphs" textLength="32" x="59.1274" y="28.9842">main</text><!--entity _management_controller--><rect fill="#F8F8F8" height="34.4844" rx="3" ry="3" style="stroke: #000000; stroke-width: 0.5;" width="153" x="76.5" y="186"/><text fill="#000000" font-family="Tahoma, sans-serif" font-size="12" lengthAdjust="spacingAndGlyphs" textLength="133" x="86.5" y="208.0059">management.controller</text><!--entity _management_module--><rect fill="#F8F8F8" height="34.4844" rx="3" ry="3" style="stroke: #000000; stroke-width: 0.5;" width="141" x="97.5" y="70"/><text fill="#000000" font-family="Tahoma, sans-serif" font-size="12" lengthAdjust="spacingAndGlyphs" textLength="121" x="107.5" y="92.0059">management.module</text><ellipse cx="408.8406" cy="87.242" fill="#F8F8F8" rx="46.8406" ry="13.242" style="stroke: #383838; stroke-width: 0.5;"/><text fill="#000000" font-family="Tahoma, sans-serif" font-size="12" lengthAdjust="spacingAndGlyphs" textLength="62" x="377.8406" y="90.9842">orm.config</text><!--entity _pagination_entity--><rect fill="#F8F8F8" height="34.4844" rx="3" ry="3" style="stroke: #000000; stroke-width: 0.5;" width="114" x="71" y="401"/><text fill="#000000" font-family="Tahoma, sans-serif" font-size="12" lengthAdjust="spacingAndGlyphs" textLength="94" x="81" y="423.0059">pagination.entity</text><ellipse cx="75.9411" cy="145.242" fill="#F8F8F8" rx="36.9411" ry="13.242" style="stroke: #383838; stroke-width: 0.5;"/><text fill="#000000" font-family="Tahoma, sans-serif" font-size="12" lengthAdjust="spacingAndGlyphs" textLength="48" x="51.9411" y="148.9842">swagger</text><!--link _app_module to _book_module--><path d="M251.687,42.079 C259.825,49.477 269.559,58.326 278.151,66.137 " fill="none" id="_app_module-_book_module" style="stroke: #000000; stroke-width: 0.5;"/><polygon fill="#000000" points="282.264,69.877,278.2961,60.8628,278.5646,66.5133,272.9141,66.7818,282.264,69.877" style="stroke: #000000; stroke-width: 0.5;"/><!--link _app_module to _management_module--><path d="M216.313,42.079 C208.175,49.477 198.441,58.326 189.849,66.137 " fill="none" id="_app_module-_management_module" style="stroke: #000000; stroke-width: 0.5;"/><polygon fill="#000000" points="185.736,69.877,195.0859,66.7818,189.4354,66.5133,189.7039,60.8628,185.736,69.877" style="stroke: #000000; stroke-width: 0.5;"/><!--link _app_module to orm.config--><path d="M277.708,40.986 C308.206,51.442 348.267,65.177 376.08,74.713 " fill="none" id="_app_module-orm.config" style="stroke: #000000; stroke-width: 0.5;"/><polygon fill="#000000" points="381.126,76.443,373.9112,69.7387,376.3966,74.8204,371.315,77.3057,381.126,76.443" style="stroke: #000000; stroke-width: 0.5;"/><!--link _book_controller to _book_entity--><path d="M298.353,220.01 C301.552,257.864 309.583,352.902 313.193,395.619 " fill="none" id="_book_controller-_book_entity" style="stroke: #000000; stroke-width: 0.5;"/><polygon fill="#000000" points="313.631,400.8046,316.8583,391.4995,313.2096,395.8224,308.8868,392.1737,313.631,400.8046" style="stroke: #000000; stroke-width: 0.5;"/><!--link _book_controller to _book_service--><path d="M310.206,220.324 C322.182,235.128 339.876,256.999 352.723,272.879 " fill="none" id="_book_controller-_book_service" style="stroke: #000000; stroke-width: 0.5;"/><polygon fill="#000000" points="355.878,276.78,353.3295,267.2666,352.7342,272.892,347.1087,272.2967,355.878,276.78" style="stroke: #000000; stroke-width: 0.5;"/><!--link _book_controller to _header_util--><path d="M269.836,220.117 C244.218,235.318 205.819,258.101 178.787,274.139 " fill="none" id="_book_controller-_header_util" style="stroke: #000000; stroke-width: 0.5;"/><polygon fill="#000000" points="174.215,276.853,183.9962,275.7004,178.515,274.3016,179.9139,268.8204,174.215,276.853" style="stroke: #000000; stroke-width: 0.5;"/><!--link _book_controller to _logging_interceptor--><path d="M288.118,220.16 C272.954,247.747 242.094,303.889 225.376,334.304 " fill="none" id="_book_controller-_logging_interceptor" style="stroke: #000000; stroke-width: 0.5;"/><polygon fill="#000000" points="222.819,338.957,230.6599,332.9971,225.2277,334.5754,223.6493,329.1432,222.819,338.957" style="stroke: #000000; stroke-width: 0.5;"/><!--link _book_controller to _pagination_entity--><path d="M244.266,220.02 C188.61,237.454 107.708,264.508 99,277 C73.669,313.337 97.7454,367.044 114.656,396.247 " fill="none" id="_book_controller-_pagination_entity" style="stroke: #000000; stroke-width: 0.5;"/><polygon fill="#000000" points="117.3,400.7168,116.1611,390.934,114.7546,396.4132,109.2754,395.0067,117.3,400.7168" style="stroke: #000000; stroke-width: 0.5;"/><!--link _book_entity to _base_entity--><path d="M289.81,435.0789 C277.798,442.746 263.344,451.9718 250.791,459.9846 " fill="none" id="_book_entity-_base_entity" style="stroke: #000000; stroke-width: 0.5;"/><polygon fill="#000000" points="246.26,462.8767,255.9985,461.4063,250.4747,460.1866,251.6944,454.6628,246.26,462.8767" style="stroke: #000000; stroke-width: 0.5;"/><!--link _book_module to _book_controller--><path d="M299.57,104.333 C299.042,124.396 298.145,158.485 297.563,180.618 " fill="none" id="_book_module-_book_controller" style="stroke: #000000; stroke-width: 0.5;"/><polygon fill="#000000" points="297.429,185.697,301.6642,176.8052,297.5604,180.6987,293.6669,176.595,297.429,185.697" style="stroke: #000000; stroke-width: 0.5;"/><!--link _book_module to _book_repository--><path d="M345.952,104.071 C386.096,121.388 438,153.211 438,202 C438,202 438,202 438,249 C438,279.531 426.006,313.092 416.939,334.101 " fill="none" id="_book_module-_book_repository" style="stroke: #000000; stroke-width: 0.5;"/><polygon fill="#000000" points="414.823,338.904,422.1126,332.2812,416.8392,334.3285,414.7918,329.0552,414.823,338.904" style="stroke: #000000; stroke-width: 0.5;"/><!--link _book_module to _book_service--><path d="M312.379,104.318 C325.823,122.981 346.746,154.978 357,186 C366.505,214.754 368.785,249.968 369.179,271.95 " fill="none" id="_book_module-_book_service" style="stroke: #000000; stroke-width: 0.5;"/><polygon fill="#000000" points="369.24,276.971,373.1291,267.9225,369.1786,271.9714,365.1297,268.0208,369.24,276.971" style="stroke: #000000; stroke-width: 0.5;"/><!--link _book_repository to _book_entity--><path d="M382.346,373.079 C370.589,380.746 356.443,389.972 344.157,397.9846 " fill="none" id="_book_repository-_book_entity" style="stroke: #000000; stroke-width: 0.5;"/><polygon fill="#000000" points="339.722,400.8767,349.4454,399.3099,343.9098,398.145,345.0747,392.6094,339.722,400.8767" style="stroke: #000000; stroke-width: 0.5;"/><!--link _book_service to _book_entity--><path d="M359.588,311.036 C354.931,319.263 349.384,329.523 345,339 C336.223,357.974 327.822,380.301 322.154,396.194 " fill="none" id="_book_service-_book_entity" style="stroke: #000000; stroke-width: 0.5;"/><polygon fill="#000000" points="320.486,400.9089,327.2597,393.7593,322.1543,396.1954,319.7181,391.09,320.486,400.9089" style="stroke: #000000; stroke-width: 0.5;"/><!--link _book_service to _book_repository--><path d="M379.183,311.079 C383.698,318.208 389.067,326.685 393.878,334.281 " fill="none" id="_book_service-_book_repository" style="stroke: #000000; stroke-width: 0.5;"/><polygon fill="#000000" points="396.789,338.877,395.3523,329.1335,394.1135,334.6531,388.5939,333.4143,396.789,338.877" style="stroke: #000000; stroke-width: 0.5;"/><!--link _header_util to _config--><path d="M116.718,311.079 C101.3141,319.258 82.5694,329.211 66.8211,337.573 " fill="none" id="_header_util-_config" style="stroke: #000000; stroke-width: 0.5;"/><polygon fill="#000000" points="62.0369,340.113,71.8617,339.4248,66.4529,337.768,68.1097,332.3592,62.0369,340.113" style="stroke: #000000; stroke-width: 0.5;"/><!--link _header_util to _pagination_entity--><path d="M144.477,311.201 C141.098,332.894 135.096,371.435 131.344,395.527 " fill="none" id="_header_util-_pagination_entity" style="stroke: #000000; stroke-width: 0.5;"/><polygon fill="#000000" points="130.533,400.7323,135.869,392.4542,131.3017,395.7917,127.9641,391.2244,130.533,400.7323" style="stroke: #000000; stroke-width: 0.5;"/><!--link <b>main</b> to _app_module--><path d="M100.7754,25 C128.864,25 156.952,25 185.041,25 " fill="none" id="&lt;b&gt;main&lt;/b&gt;-_app_module" style="stroke: #000000; stroke-width: 1.0;"/><polygon fill="#000000" points="190.286,25,181.286,21,185.286,25,181.286,29,190.286,25" style="stroke: #000000; stroke-width: 1.0;"/><!--link <b>main</b> to _config--><path d="M65.1611,37.152 C48.6134,57.1 17,100.857 17,144 C17,144 17,144 17,249 C17,278.725 23.5979,312.553 28.5729,333.836 " fill="none" id="&lt;b&gt;main&lt;/b&gt;-_config" style="stroke: #000000; stroke-width: 1.0;"/><polygon fill="#000000" points="29.7978,338.966,31.5978,329.283,28.6364,334.1028,23.8167,331.1413,29.7978,338.966" style="stroke: #000000; stroke-width: 1.0;"/><!--link <b>main</b> to swagger--><path d="M75.1033,38.184 C75.2814,59.205 75.6471,102.357 75.8522,126.558 " fill="none" id="&lt;b&gt;main&lt;/b&gt;-swagger" style="stroke: #000000; stroke-width: 1.0;"/><polygon fill="#000000" points="75.8958,131.706,79.8185,122.672,75.8529,126.7062,71.8188,122.7406,75.8958,131.706" style="stroke: #000000; stroke-width: 1.0;"/><!--link _management_controller to _logging_interceptor--><path d="M163.73,220.201 C172.864,234.603 185.777,256.493 194,277 C201.433,295.536 206.798,317.672 210.089,333.62 " fill="none" id="_management_controller-_logging_interceptor" style="stroke: #000000; stroke-width: 0.5;"/><polygon fill="#000000" points="211.125,338.777,213.272,329.165,210.1392,333.8751,205.4291,330.7423,211.125,338.777" style="stroke: #000000; stroke-width: 0.5;"/><!--link _management_module to _management_controller--><path d="M165.851,104.333 C163.211,124.396 158.726,158.485 155.813,180.618 " fill="none" id="_management_module-_management_controller" style="stroke: #000000; stroke-width: 0.5;"/><polygon fill="#000000" points="155.145,185.697,160.2856,177.2962,155.7977,180.7398,152.354,176.2519,155.145,185.697" style="stroke: #000000; stroke-width: 0.5;"/><!--link _pagination_entity to _base_entity--><path d="M152.922,435.0789 C164.806,442.746 179.106,451.9718 191.526,459.9846 " fill="none" id="_pagination_entity-_base_entity" style="stroke: #000000; stroke-width: 0.5;"/><polygon fill="#000000" points="196.009,462.8767,190.6139,454.637,191.8072,460.1666,186.2776,461.3599,196.009,462.8767" style="stroke: #000000; stroke-width: 0.5;"/><!--link swagger to _config--><path d="M73.5604,158.14 C66.6627,192.464 46.9556,290.53 38.2372,333.915 " fill="none" id="swagger-_config" style="stroke: #000000; stroke-width: 0.5;"/><polygon fill="#000000" points="37.23,338.927,42.9257,330.8922,38.2157,334.0251,35.0827,329.3151,37.23,338.927" style="stroke: #000000; stroke-width: 0.5;"/><script type="text/plantuml"><![CDATA[
@startuml

scale max 1920 width
top to bottom direction

skinparam nodesep 14
skinparam ranksep 28
skinparam monochrome true
skinparam shadowing false
skinparam defaultFontName Tahoma
skinparam defaultFontSize 12
skinparam roundCorner 6
skinparam dpi 150
skinparam arrowColor black
skinparam arrowThickness 0.5
skinparam packageTitleAlignment left

skinparam usecase {
  borderThickness 0.5
}

skinparam rectangle {
  borderThickness 0.5
}

skinparam component {
  borderThickness 1
}


rectangle "app.module" as _app_module
rectangle "base.entity" as _base_entity
rectangle "book.controller" as _book_controller
rectangle "book.entity" as _book_entity
rectangle "book.module" as _book_module
rectangle "book.repository" as _book_repository
rectangle "book.service" as _book_service
rectangle "config" as _config
rectangle "header-util" as _header_util
rectangle "logging.interceptor" as _logging_interceptor
(<b>main</b>)
rectangle "management.controller" as _management_controller
rectangle "management.module" as _management_module
(orm.config)
rectangle "pagination.entity" as _pagination_entity
(swagger)


_app_module --> _book_module
_app_module --> _management_module
_app_module --> (orm.config)
_book_controller ---> _book_entity
_book_controller ---> _book_service
_book_controller ---> _header_util
_book_controller ----> _logging_interceptor
_book_controller ----> _pagination_entity
_book_entity --> _base_entity
_book_module ---> _book_controller
_book_module --> _book_repository
_book_module --> _book_service
_book_repository --> _book_entity
_book_service --> _book_entity
_book_service --> _book_repository
_header_util --> _config
_header_util ---> _pagination_entity
(<b>main</b>) -[thickness=1]> _app_module
(<b>main</b>) -[thickness=1]> _config
(<b>main</b>) -[thickness=1]> (swagger)
_management_controller ----> _logging_interceptor
_management_module ---> _management_controller
_pagination_entity --> _base_entity
(swagger) --> _config

@enduml


' View and edit on https://arkit.pro
]]></script></g></svg>